<svg xmlns="http://www.w3.org/2000/svg" version="1.1" xmlns:xlink="http://www.w3.org/1999/xlink" viewBox="0 0 200 200" width="200" height="200"><rect width="200" height="200" fill="url('#gradient')"></rect><defs><linearGradient id="gradient" gradientTransform="rotate(0 0.5 0.5)"><stop offset="0%" stop-color="#ffffff"></stop><stop offset="100%" stop-color="#ffffff"></stop></linearGradient></defs><g><g fill="#271c26" transform="matrix(4.368381430363865,0,0,4.368381430363865,10.3148991546188,131.05856741961452)" stroke="#010101" stroke-width="0.2"><path d="M1.07-14.22L5.58-14.22L8.75-4.33L11.91-14.22L16.43-14.22L16.43 0L12.99 0L12.99-3.32L13.32-10.12L9.88 0L7.62 0L4.17-10.13L4.50-3.32L4.50 0L1.07 0L1.07-14.22ZM22.26-14.22L22.26 0L18.84 0L18.84-14.22L22.26-14.22ZM24.64-14.22L29.14-14.22L32.31-4.33L35.48-14.22L39.99-14.22L39.99 0L36.55 0L36.55-3.32L36.88-10.12L33.45 0L31.18 0L27.73-10.13L28.07-3.32L28.07 0L24.64 0L24.64-14.22Z"></path></g></g></svg>